<svg width="28" height="27" viewBox="0 0 28 27" fill="none" xmlns="http://www.w3.org/2000/svg">
<g clip-path="url(#clip0)">
<path d="M13.7494 16.2026C15.2389 16.2026 16.4531 14.9905 16.4531 13.5C16.4531 12.9116 16.2606 12.3684 15.942 11.9246C15.4509 11.2438 14.6527 10.7974 13.7511 10.7974C12.8489 10.7974 12.0512 11.2433 11.5591 11.9241C11.2393 12.3678 11.0485 12.9111 11.0479 13.4994C11.0463 14.9899 12.2595 16.2026 13.7494 16.2026Z" fill="black"/>
<path d="M19.6512 10.1937V7.92833V7.59119L19.3124 7.59227L17.0481 7.59934L17.0568 10.2024L19.6512 10.1937Z" fill="black"/>
<path d="M13.75 0C6.30613 0 0.25 6.05613 0.25 13.5C0.25 20.9433 6.30613 27 13.75 27C21.1933 27 27.25 20.9433 27.25 13.5C27.25 6.05613 21.1944 0 13.75 0ZM21.4277 11.9247V18.2108C21.4277 19.8481 20.0965 21.1788 18.4603 21.1788H9.03973C7.40294 21.1788 6.0723 19.8481 6.0723 18.2108V11.9247V8.79028C6.0723 7.15349 7.40294 5.82285 9.03973 5.82285H18.4597C20.0965 5.82285 21.4277 7.15349 21.4277 8.79028V11.9247Z" fill="black"/>
<path d="M17.9496 13.5C17.9496 15.8149 16.066 17.6997 13.75 17.6997C11.434 17.6997 9.55087 15.8149 9.55087 13.5C9.55087 12.9432 9.6618 12.4108 9.85974 11.9247H7.56769V18.2108C7.56769 19.0232 8.2273 19.6812 9.03917 19.6812H18.4592C19.2699 19.6812 19.9306 19.0232 19.9306 18.2108V11.9247H17.6375C17.8371 12.4108 17.9496 12.9432 17.9496 13.5Z" fill="black"/>
</g>
<defs>
<clipPath id="clip0">
<rect width="27" height="27" fill="white" transform="translate(0.25)"/>
</clipPath>
</defs>
</svg>
