<svg width="27" height="27" viewBox="0 0 27 27" fill="none" xmlns="http://www.w3.org/2000/svg">
<path d="M13.5 0C6.04462 0 0 6.04462 0 13.5C0 20.9554 6.04462 27 13.5 27C20.9554 27 27 20.9554 27 13.5C27 6.04296 20.9554 0 13.5 0ZM16.9897 13.4983L14.7774 13.4999L14.7757 21.5999H11.7399V13.5H9.71494V10.7089L11.7399 10.7072L11.7365 9.06358C11.7365 6.78547 12.3541 5.40003 15.0356 5.40003H17.2698V8.19284H15.8726C14.828 8.19284 14.7774 8.58263 14.7774 9.30994L14.774 10.7072H17.285L16.9897 13.4983Z" fill="black"/>
</svg>
